# xmcd CD database file
#
# Track frame offsets:
#	150
#	27228
#	53995
#	73658
#	87495
#	116865
#	139325
#	149285
#	187520
#	200900
#	225705
#
# Disc length: 3284 seconds
#
# Revision: 0
# Processed by: cddbd v1.5.2PL0 Copyright (c) Steve Scherf et al.
# Submitted via: CDex 1.70beta2
#
DISCID=a50cd20b
DTITLE=RACHEL GOULD - MORE OF ME
DYEAR=1994
DGENRE=Jazz
TTITLE0=More Of Me
TTITLE1=Remember
TTITLE2=Mean To Me
TTITLE3=Sometimes I’m Happy 
TTITLE4=Second Star From The Right
TTITLE5=Thinking Of You Bossa
TTITLE6=Stompin’ At The Savoy
TTITLE7=I Don’t Want To Cry Anymore
TTITLE8=Love Is Just Around The Corner
TTITLE9=II Loves You, Porgy
TTITLE10=Sweet And Rumpled 
EXTD=YEAR: 1994
EXTT0=
EXTT1=
EXTT2=
EXTT3=
EXTT4=
EXTT5=
EXTT6=
EXTT7=
EXTT8=
EXTT9=
EXTT10=
PLAYORDER=
